<?xml version="1.0" standalone="no"?>
<!DOCTYPE svg PUBLIC "-//W3C//DTD SVG 20010904//EN"
 "http://www.w3.org/TR/2001/REC-SVG-20010904/DTD/svg10.dtd">
<svg version="1.0" xmlns="http://www.w3.org/2000/svg"
 width="1080.000000pt" height="1080.000000pt" viewBox="0 0 1080.000000 1080.000000"
 preserveAspectRatio="xMidYMid meet">

<g transform="translate(0.000000,1080.000000) scale(0.100000,-0.100000)"
fill="#000000" stroke="none">
<path d="M4570 5700 l0 -971 78 3 77 3 3 968 2 967 -80 0 -80 0 0 -970z m130
0 l0 -950 -55 0 -55 0 0 950 0 950 55 0 55 0 0 -950z"/>
<path d="M1875 6473 c-7 -76 -9 -82 -26 -72 -11 5 -19 8 -19 6 0 -2 9 -39 20
-82 11 -43 20 -91 20 -107 0 -28 1 -29 47 -26 l46 3 18 85 c10 47 24 106 32
132 l15 48 -26 -21 -27 -21 -3 37 c-3 35 -4 36 -22 20 -18 -16 -19 -15 -25 18
-5 24 -11 34 -20 31 -7 -3 -15 3 -18 13 -2 10 -7 -19 -12 -64z"/>
<path d="M3097 6228 c-34 -27 -37 -64 -37 -507 0 -451 3 -491 40 -511 31 -16
86 -11 113 10 l26 20 3 213 c3 202 4 214 27 253 13 23 40 51 61 63 46 25 125
28 158 5 47 -33 52 -59 52 -282 0 -216 7 -264 40 -282 31 -17 86 -11 114 11
l27 21 -3 262 -3 261 -29 53 c-21 38 -44 61 -75 80 -41 24 -56 27 -136 27 -81
0 -95 -3 -144 -30 -30 -16 -59 -38 -65 -47 -6 -10 -14 -18 -18 -18 -5 0 -8 83
-8 184 l0 185 -26 20 c-30 24 -91 28 -117 9z"/>
<path d="M1039 6211 l-24 -19 0 -472 0 -472 24 -19 c22 -18 43 -19 315 -19
339 0 336 -1 336 80 0 79 -5 80 -267 80 l-223 0 0 383 c0 223 -4 397 -10 418
-16 58 -102 80 -151 40z"/>
<path d="M5612 6218 c-19 -19 -14 -46 12 -63 36 -24 68 -5 64 38 -3 27 -7 32
-33 35 -17 2 -36 -3 -43 -10z"/>
<path d="M7025 6217 c-43 -20 -59 -43 -65 -96 -5 -43 -7 -46 -37 -49 -27 -3
-33 -8 -33 -27 0 -19 6 -24 33 -27 l32 -3 3 -157 3 -158 29 0 29 0 3 158 3
157 53 3 c47 3 52 5 52 27 0 22 -5 24 -52 27 -47 3 -53 6 -56 26 -2 13 4 35
13 49 15 23 22 25 60 19 38 -5 45 -3 50 15 4 12 3 25 -3 31 -16 16 -85 19
-117 5z"/>
<path d="M7250 6215 c-7 -8 -10 -25 -6 -39 10 -41 72 -42 82 0 8 30 -11 54
-41 54 -12 0 -28 -7 -35 -15z"/>
<path d="M4950 5946 l0 -246 35 0 35 0 2 172 3 172 85 -142 c68 -115 89 -142
105 -140 14 2 46 47 105 147 l85 145 3 -177 2 -177 35 0 35 0 0 245 0 245 -33
0 c-31 0 -35 -5 -132 -170 -54 -93 -101 -167 -104 -164 -3 2 -48 77 -101 167
-90 150 -99 162 -128 165 l-32 3 0 -245z"/>
<path d="M1802 6148 c3 -9 38 -14 116 -16 95 -2 112 0 112 13 0 13 -18 15
-116 15 -88 0 -115 -3 -112 -12z"/>
<path d="M3986 6119 c-25 -19 -26 -25 -26 -110 l0 -89 -53 0 c-67 0 -97 -20
-97 -64 0 -53 19 -69 88 -74 l61 -4 3 -207 c3 -191 5 -209 25 -248 28 -52 77
-90 139 -109 84 -25 215 -13 241 22 17 23 17 100 1 111 -7 4 -48 8 -90 8 -71
0 -80 2 -105 28 l-28 27 -3 185 -3 185 83 0 c106 0 132 13 136 64 5 64 -14 76
-124 76 l-92 0 -4 91 c-3 81 -6 93 -27 110 -31 26 -91 25 -125 -2z"/>
<path d="M1790 6080 c0 -19 7 -20 130 -20 123 0 130 1 130 20 0 19 -7 20 -130
20 -123 0 -130 -1 -130 -20z"/>
<path d="M5924 6071 c-89 -22 -144 -92 -144 -182 0 -118 76 -193 195 -193 47
0 71 6 98 23 53 33 61 52 30 72 -23 16 -26 15 -49 -6 -51 -47 -137 -38 -182
20 -16 20 -22 41 -22 80 0 39 6 60 22 80 45 58 131 67 182 20 23 -22 25 -22
50 -6 24 16 25 19 10 39 -31 44 -123 70 -190 53z"/>
<path d="M6362 6070 c-18 -4 -44 -18 -58 -31 l-24 -22 0 26 c0 23 -4 27 -30
27 l-30 0 0 -185 0 -185 29 0 29 0 4 118 c3 90 7 123 21 143 20 30 57 49 93
49 22 0 25 4 22 32 -3 36 -10 39 -56 28z"/>
<path d="M6601 6070 c-163 -40 -188 -278 -37 -357 51 -27 144 -22 198 10 116
68 118 256 5 321 -48 28 -116 39 -166 26z m129 -79 c77 -56 62 -190 -26 -227
-101 -42 -198 56 -165 166 24 80 123 112 191 61z"/>
<path d="M7586 6066 c-21 -8 -43 -19 -49 -25 -17 -17 -27 -13 -27 9 0 16 -7
20 -30 20 l-30 0 0 -185 0 -185 35 0 35 0 0 115 c0 158 21 196 109 197 88 1
111 -41 111 -202 l0 -110 31 0 30 0 -3 149 c-3 143 -4 151 -28 176 -33 35 -46
42 -100 49 -28 4 -59 1 -84 -8z"/>
<path d="M8001 6070 c-24 -5 -54 -16 -67 -25 -21 -13 -22 -18 -12 -40 8 -18
16 -24 27 -19 59 26 105 36 135 30 40 -8 78 -49 74 -80 -3 -19 -12 -21 -101
-26 -96 -5 -100 -6 -128 -38 -38 -42 -39 -89 -3 -131 46 -55 152 -64 209 -19
l25 19 0 -20 c0 -17 6 -21 36 -21 l36 0 -4 143 c-2 116 -6 148 -21 170 -34 52
-118 75 -206 57z m159 -236 c0 -15 -12 -38 -29 -55 -69 -69 -209 -8 -144 63
13 14 31 18 95 18 77 0 78 0 78 -26z"/>
<path d="M8503 6071 c-18 -5 -44 -16 -58 -25 -24 -16 -25 -16 -25 4 0 16 -7
20 -35 20 l-35 0 0 -185 0 -185 35 0 35 0 0 113 c0 69 5 121 13 136 20 40 61
64 108 64 35 0 48 -6 71 -32 28 -31 28 -33 28 -156 l0 -125 35 0 35 0 0 128
c0 146 -16 199 -68 226 -38 20 -98 27 -139 17z"/>
<path d="M8965 6075 c-5 -2 -22 -6 -37 -9 -65 -14 -128 -103 -128 -181 0 -162
205 -253 323 -145 l32 30 -25 19 c-24 19 -25 19 -45 1 -101 -95 -251 10 -204
144 18 52 56 79 113 80 32 1 53 -6 76 -23 27 -19 36 -21 56 -12 31 14 30 24
-6 55 -41 34 -116 54 -155 41z"/>
<path d="M9330 6069 c-79 -24 -130 -95 -130 -182 0 -57 14 -94 48 -130 43 -46
81 -61 152 -61 63 0 97 11 132 41 16 14 16 17 1 37 l-16 21 -48 -23 c-63 -32
-119 -24 -166 23 -61 61 -52 65 117 65 l150 0 0 40 c0 62 -38 128 -90 155 -37
19 -110 26 -150 14z m110 -64 c33 -17 60 -52 60 -77 0 -16 -11 -18 -115 -18
-74 0 -115 4 -115 10 0 27 34 73 63 85 42 18 71 18 107 0z"/>
<path d="M5610 5885 l0 -185 35 0 35 0 0 185 0 185 -35 0 -35 0 0 -185z"/>
<path d="M7250 5885 l0 -185 35 0 35 0 0 185 0 185 -35 0 -35 0 0 -185z"/>
<path d="M1740 6000 c0 -19 7 -20 170 -20 163 0 170 1 170 20 0 19 -7 20 -170
20 -163 0 -170 -1 -170 -20z"/>
<path d="M1810 5920 c0 -19 6 -20 111 -20 100 0 110 2 107 18 -3 15 -18 17
-111 20 -102 3 -107 2 -107 -18z"/>
<path d="M2380 5921 c-127 -42 -199 -131 -219 -275 -24 -171 38 -318 163 -384
44 -23 63 -27 141 -27 104 0 149 18 205 81 l33 38 -5 -87 c-5 -94 -17 -120
-72 -161 -24 -18 -42 -21 -134 -21 -89 1 -115 4 -156 23 -59 27 -97 28 -119 4
-17 -19 -22 -68 -9 -88 25 -39 191 -84 306 -84 176 0 288 63 338 189 21 53 22
74 26 374 2 175 1 334 -3 353 -9 50 -37 74 -85 74 -52 0 -90 -34 -90 -81 l0
-33 -32 33 c-51 53 -103 74 -188 77 -41 2 -86 0 -100 -5z m214 -145 c76 -32
121 -146 98 -252 -21 -101 -82 -154 -177 -154 -106 0 -175 83 -175 208 0 97
27 151 95 193 36 23 111 25 159 5z"/>
<path d="M1830 5850 c0 -19 7 -20 90 -20 83 0 90 1 90 20 0 19 -7 20 -90 20
-83 0 -90 -1 -90 -20z"/>
<path d="M1840 5765 l0 -35 80 0 80 0 0 35 0 35 -80 0 -80 0 0 -35z"/>
<path d="M1840 5703 c0 -5 7 -102 15 -218 8 -115 15 -225 15 -242 0 -33 0 -33
49 -33 39 0 51 4 55 18 2 9 7 98 10 197 4 99 9 204 12 233 l6 52 -81 0 c-44 0
-81 -3 -81 -7z"/>
<path d="M6380 5380 l0 -260 35 0 35 0 1 53 c1 47 4 55 38 84 l37 31 68 -84
c64 -79 70 -84 107 -84 21 0 39 2 39 5 0 3 -36 51 -80 107 l-81 102 78 78 78
78 -45 0 c-43 0 -50 -5 -135 -85 -49 -46 -93 -84 -97 -85 -5 0 -8 72 -8 160
l0 160 -35 0 -35 0 0 -260z"/>
<path d="M4950 5365 l0 -245 158 0 c172 0 206 9 245 62 40 54 18 154 -38 180
l-25 11 25 25 c47 47 45 125 -5 172 -38 35 -65 40 -226 40 l-134 0 0 -245z
m305 160 c39 -38 32 -86 -16 -110 -19 -10 -59 -15 -124 -15 l-95 0 0 75 0 75
105 0 c99 0 107 -2 130 -25z m0 -199 c55 -23 62 -93 12 -130 -23 -17 -42 -20
-135 -21 l-107 0 -3 83 -3 82 101 0 c65 0 113 -5 135 -14z"/>
<path d="M5551 5489 c-44 -9 -91 -33 -91 -47 0 -5 6 -16 13 -26 13 -18 15 -18
48 0 52 27 121 25 153 -5 16 -15 26 -35 26 -53 l0 -28 -85 0 c-126 0 -165 -25
-165 -108 0 -52 30 -88 82 -103 48 -12 117 -5 144 16 25 19 34 19 34 0 0 -10
10 -15 31 -15 l30 0 -3 149 c-3 143 -4 151 -28 176 -14 15 -32 30 -40 35 -26
13 -104 18 -149 9z m149 -233 c0 -38 -10 -56 -41 -71 -61 -32 -149 -8 -149 40
0 8 9 24 20 35 16 16 33 20 95 20 73 0 75 -1 75 -24z"/>
<path d="M6051 5490 c-18 -4 -46 -18 -62 -29 l-29 -22 0 26 c0 21 -5 25 -30
25 l-30 0 0 -185 0 -185 35 0 35 0 0 126 c0 125 0 126 29 155 25 24 38 29 79
29 91 0 111 -39 112 -217 l0 -93 30 0 30 0 0 139 c0 127 -2 141 -23 172 -35
53 -106 76 -176 59z"/>
</g>
</svg>
